<svg xmlns="http://www.w3.org/2000/svg" viewBox="0 0 1200 300" width="1200" height="300">
  <defs>
    <linearGradient id="grad-light" x1="0%" y1="0%" x2="100%" y2="100%">
      <stop offset="0%" style="stop-color:#2563EB;stop-opacity:0.08" />
      <stop offset="100%" style="stop-color:#7C3AED;stop-opacity:0.06" />
    </linearGradient>
  </defs>

  <!-- Background -->
  <rect width="1200" height="300" fill="url(#grad-light)" rx="12" />

  <!-- Geometric pattern — nodes and connections (governance/structure motif) -->
  <g stroke="#2563EB" stroke-opacity="0.12" fill="none" stroke-width="1.5">
    <!-- Connection lines -->
    <line x1="80" y1="60" x2="160" y2="120" />
    <line x1="160" y1="120" x2="120" y2="200" />
    <line x1="160" y1="120" x2="240" y2="80" />
    <line x1="240" y1="80" x2="280" y2="160" />
    <line x1="280" y1="160" x2="200" y2="220" />
    <line x1="120" y1="200" x2="200" y2="220" />

    <line x1="920" y1="80" x2="1000" y2="140" />
    <line x1="1000" y1="140" x2="960" y2="220" />
    <line x1="1000" y1="140" x2="1080" y2="100" />
    <line x1="1080" y1="100" x2="1120" y2="180" />
    <line x1="1120" y1="180" x2="1040" y2="240" />
    <line x1="960" y1="220" x2="1040" y2="240" />
  </g>

  <!-- Nodes -->
  <g fill="#2563EB" fill-opacity="0.15">
    <circle cx="80" cy="60" r="5" />
    <circle cx="160" cy="120" r="7" />
    <circle cx="120" cy="200" r="4" />
    <circle cx="240" cy="80" r="5" />
    <circle cx="280" cy="160" r="6" />
    <circle cx="200" cy="220" r="4" />

    <circle cx="920" cy="80" r="5" />
    <circle cx="1000" cy="140" r="7" />
    <circle cx="960" cy="220" r="4" />
    <circle cx="1080" cy="100" r="5" />
    <circle cx="1120" cy="180" r="6" />
    <circle cx="1040" cy="240" r="4" />
  </g>

  <!-- Shield icon (governance motif) -->
  <g transform="translate(540, 55)" fill="none" stroke="#2563EB" stroke-width="2.5" stroke-linecap="round" stroke-linejoin="round">
    <path d="M12 0 L24 6 L24 14 C24 22 18 28 12 32 C6 28 0 22 0 14 L0 6 Z" />
    <polyline points="8,16 11,19 17,13" />
  </g>

  <!-- Wordmark -->
  <text x="600" y="135" text-anchor="middle" font-family="'Segoe UI', system-ui, -apple-system, sans-serif" font-size="52" font-weight="700" fill="#0F172A" letter-spacing="-1">
    Solantic AI
  </text>

  <!-- Tagline -->
  <text x="600" y="170" text-anchor="middle" font-family="'Segoe UI', system-ui, -apple-system, sans-serif" font-size="18" font-weight="400" fill="#475569" letter-spacing="3">
    AI GOVERNANCE &middot; DATA UNIFICATION &middot; TOKEN OPTIMISATION
  </text>

  <!-- Accent line -->
  <rect x="500" y="190" width="200" height="2" rx="1" fill="#2563EB" fill-opacity="0.3" />

  <!-- Subtitle -->
  <text x="600" y="225" text-anchor="middle" font-family="'Segoe UI', system-ui, -apple-system, sans-serif" font-size="14" fill="#64748B">
    Open-source tools for the AI-assisted development era
  </text>
</svg>
